<?xml version="1.0" encoding="UTF-8"?>
<svg version="1.1" xmlns="http://www.w3.org/2000/svg" width="500" height="500">
<path d="M0 0 C2.66940918 1.92999537 4.03333545 3.61657849 4.9296875 6.78125 C5.20803404 10.69665798 4.46358034 13.97381419 3.4140625 17.703125 C3.03902866 19.11457434 2.66402902 20.52603277 2.2890625 21.9375 C2.09957031 22.63294922 1.91007812 23.32839844 1.71484375 24.04492188 C0.91282274 27.00557389 0.16137244 29.9782566 -0.5859375 32.953125 C-0.82828125 33.89929688 -1.070625 34.84546875 -1.3203125 35.8203125 C-1.91015137 38.01710149 -1.91015137 38.01710149 -1.8359375 40.078125 C4.9453522 39.52160578 10.98753487 38.14196648 17.4765625 36.140625 C28.99611823 32.68004056 40.56801063 29.44037342 52.16616821 26.25491333 C60.62898573 23.92989347 69.04487201 21.52275628 77.42358398 18.90649414 C80.71474549 17.91166911 83.99068831 17.11289983 87.3515625 16.390625 C91.37768496 15.5697691 91.37768496 15.5697691 95.1640625 14.078125 C99.6437208 13.46326994 102.46824247 13.83152213 106.1015625 16.453125 C108.667711 18.96713956 109.69629978 20.7319292 109.9140625 24.328125 C109.50894 29.81348365 107.93480929 35.01534608 106.3684082 40.26196289 C103.88493305 48.65749576 102.12090827 57.19534976 100.39599609 65.77514648 C97.48298143 79.60843337 97.48298143 79.60843337 91.171875 84.3046875 C86.086472 86.84603865 80.52422708 88.07148866 75.0390625 89.453125 C72.69624405 90.06237902 70.35380006 90.67307465 68.01171875 91.28515625 C66.85172363 91.58631348 65.69172852 91.8874707 64.49658203 92.19775391 C59.8012459 93.4381482 55.13871883 94.78174898 50.4765625 96.140625 C41.84184642 98.64530684 33.16049807 100.94203028 24.44848633 103.16235352 C23.06439575 103.51704712 23.06439575 103.51704712 21.65234375 103.87890625 C20.83290283 104.08684814 20.01346191 104.29479004 19.16918945 104.5090332 C17.11625711 105.02452272 17.11625711 105.02452272 15.1640625 106.078125 C10.39298198 106.59323281 6.40677052 106.67462485 2.0390625 104.578125 C-0.56249657 101.10937957 -0.29963961 98.22519674 0.1640625 94.078125 C1.15182435 89.4860136 2.39911068 84.97569405 3.6640625 80.453125 C4.32716041 78.0669966 4.98365522 75.67902116 5.6328125 73.2890625 C6.07270508 71.71584229 6.07270508 71.71584229 6.52148438 70.11083984 C7.17845907 67.01017887 7.27983511 64.23765395 7.1640625 61.078125 C2.75018814 59.6920905 -0.56692306 60.95405951 -4.8359375 62.328125 C-6.37701158 62.80400659 -7.91868218 63.27796064 -9.4609375 63.75 C-10.21246094 63.98138672 -10.96398437 64.21277344 -11.73828125 64.45117188 C-14.4172901 65.25188122 -17.11664814 65.92851699 -19.8359375 66.578125 C-24.61940125 67.73320424 -29.31398844 69.09588805 -34.0234375 70.515625 C-39.63407145 72.20293057 -45.24270143 73.68005213 -50.9609375 74.953125 C-57.91732152 76.51420976 -64.71097562 78.47947574 -71.5234375 80.578125 C-72.50795898 80.88097412 -73.49248047 81.18382324 -74.50683594 81.49584961 C-78.03348207 82.58454337 -81.55914915 83.67605476 -85.07958984 84.78466797 C-101.60018104 89.96908771 -101.60018104 89.96908771 -109.3359375 86.515625 C-112.59199481 83.34096912 -112.54213953 81.56710475 -112.8359375 77.078125 C-112.27856445 73.4921875 -112.27856445 73.4921875 -111.32421875 69.703125 C-111.15472214 69.01613525 -110.98522552 68.32914551 -110.81059265 67.62133789 C-110.26849767 65.43706991 -109.70873488 63.25778597 -109.1484375 61.078125 C-108.79116724 59.64742222 -108.43503887 58.21643378 -108.08007812 56.78515625 C-105.770201 47.52186321 -103.32066896 38.29586656 -100.8359375 29.078125 C-100.1759375 29.078125 -99.5159375 29.078125 -98.8359375 29.078125 C-98.8359375 28.088125 -98.8359375 27.098125 -98.8359375 26.078125 C-92.15284352 20.15881319 -82.45690786 18.6111073 -73.9609375 16.765625 C-67.72493679 15.39159095 -61.68084675 13.53899056 -55.5859375 11.640625 C-48.05588052 9.29733212 -40.55710764 7.19340925 -32.85449219 5.50512695 C-27.90431022 4.39835457 -23.14731769 2.92647799 -18.3359375 1.328125 C-5.57545104 -2.79958818 -5.57545104 -2.79958818 0 0 Z " fill="#F6F6F6" transform="translate(247.8359375,188.921875)"/>
<path d="M0 0 C0.99 0.33 1.98 0.66 3 1 C2.443125 1.20625 1.88625 1.4125 1.3125 1.625 C-1.92501302 3.55000774 -3.68231141 6.03850902 -6 9 C-5.67 9.66 -5.34 10.32 -5 11 C-6.32 11.99 -7.64 12.98 -9 14 C-8.67 11.69 -8.34 9.38 -8 7 C-7.34 7 -6.68 7 -6 7 C-6 6.01 -6 5.02 -6 4 C-3.1875 1.75 -3.1875 1.75 0 0 Z " fill="#888888" transform="translate(155,211)"/>
<path d="M0 0 C-1.74468372 0.70088156 -3.49601161 1.38524009 -5.25 2.0625 C-6.22453125 2.44535156 -7.1990625 2.82820312 -8.203125 3.22265625 C-11.04007395 4.01113787 -12.29409552 4.02437812 -15 3 C-12.41464321 1.27642881 -10.96188386 0.55264982 -8.0625 -0.1875 C-7.39347656 -0.36667969 -6.72445313 -0.54585937 -6.03515625 -0.73046875 C-3.75319112 -1.03268678 -2.17973341 -0.68756692 0 0 Z " fill="#949494" transform="translate(297,218)"/>
</svg>
