<?xml version="1.0" encoding="UTF-8"?><svg id="a" xmlns="http://www.w3.org/2000/svg" viewBox="0 0 1080 1080"><path d="M594.13,796.7c-33.46-.48-46.41-16.74-39.14-48.64,10.51-46.19,21.42-92.29,32.42-138.36,7.78-32.57-2.92-43.98-34.81-35.26-122.51,33.51-244.9,67.47-367.38,101.09-38.86,10.67-77.66,21.71-116.87,30.96-44.38,10.47-69.49-16.31-58.96-59.84,15.18-62.72,29.06-125.75,43.75-188.58,8.01-34.27,27.74-56.39,63.11-65.99,127.46-34.61,254.59-70.48,381.86-105.81,44.83-12.44,74.35,15.44,63.83,60.93-7.72,33.38-16.89,66.42-25.25,99.66-8.86,35.23-1.48,44.66,33.51,35.37,102.34-27.15,204.09-56.48,306.18-84.56,45.65-12.56,91.43-24.66,137.38-36.05,37.5-9.3,66.31,18.34,57.74,56.34-16.85,74.8-32.94,149.93-54.31,223.47-5.87,20.19-26.32,45.33-45.26,51.06-122.55,37.07-246.54,69.41-370.08,103.23-2.88.79-5.99.78-7.71.99Z" fill="#fff" stroke-width="0"/></svg>